<svg width="34" height="30" viewBox="0 0 34 30" fill="none" xmlns="http://www.w3.org/2000/svg">
<g id="&#240;&#159;&#166;&#134; icon &#34;settings&#34;">
<path id="Vector" d="M27.2475 16.4295C27.303 16.0672 27.3308 15.6927 27.3308 15.2941C27.3308 14.9076 27.303 14.5211 27.2336 14.1588L30.051 12.2504C30.3009 12.0813 30.3703 11.7552 30.2176 11.5136L27.5528 7.50355C27.3863 7.23783 27.0393 7.15328 26.734 7.23783L23.4169 8.39736C22.723 7.93838 21.9874 7.55187 21.1685 7.26199L20.6689 4.19407C20.6134 3.90419 20.3358 3.69885 20.0027 3.69885H14.6732C14.3401 3.69885 14.0764 3.90419 14.0209 4.19407L13.5212 7.26199C12.7024 7.55187 11.9529 7.95046 11.2729 8.39736L7.9558 7.23783C7.65046 7.1412 7.30349 7.23783 7.13694 7.50355L4.48606 11.5136C4.31952 11.7672 4.37503 12.0813 4.65261 12.2504L7.47003 14.1588C7.40064 14.5211 7.34512 14.9197 7.34512 15.2941C7.34512 15.6686 7.37288 16.0672 7.44228 16.4295L4.62485 18.3379C4.37503 18.507 4.30564 18.8331 4.45831 19.0747L7.12306 23.0847C7.28961 23.3504 7.63658 23.435 7.94192 23.3504L11.259 22.1909C11.9529 22.6499 12.6885 23.0364 13.5074 23.3263L14.007 26.3942C14.0764 26.6841 14.3401 26.8894 14.6732 26.8894H20.0027C20.3358 26.8894 20.6134 26.6841 20.655 26.3942L21.1547 23.3263C21.9735 23.0364 22.723 22.6499 23.403 22.1909L26.7201 23.3504C27.0254 23.4471 27.3724 23.3504 27.539 23.0847L30.2037 19.0747C30.3703 18.809 30.3009 18.507 30.0372 18.3379L27.2475 16.4295ZM17.338 19.6424C14.5899 19.6424 12.3415 17.6857 12.3415 15.2941C12.3415 12.9026 14.5899 10.9459 17.338 10.9459C20.086 10.9459 22.3344 12.9026 22.3344 15.2941C22.3344 17.6857 20.086 19.6424 17.338 19.6424Z" fill="#FF9900"/>
</g>
</svg>
