<svg width="35" height="27" viewBox="0 0 35 27" fill="none" xmlns="http://www.w3.org/2000/svg">
<g id="&#240;&#159;&#166;&#134; icon &#34;Library&#34;">
<path id="Vector" d="M4.31398 0.200012H5.98031C7.73632 0.200012 9.17652 1.38392 9.30382 2.88397L9.31297 3.10032V23.4025C9.31297 24.9307 7.95258 26.1841 6.22891 26.2949L5.98031 26.3028H4.31398C2.55797 26.3028 1.11777 25.1189 0.99047 23.6189L0.981323 23.4025V3.10032C0.981323 1.57212 2.34171 0.318757 4.06538 0.207972L4.31398 0.200012ZM14.312 0.200012H15.9783C17.7343 0.200012 19.1745 1.38392 19.3018 2.88397L19.3109 3.10032V23.4025C19.3109 24.9307 17.9506 26.1841 16.2269 26.2949L15.9783 26.3028H14.312C12.5559 26.3028 11.1157 25.1189 10.9884 23.6189L10.9793 23.4025V3.10032C10.9793 1.57212 12.3397 0.318757 14.0633 0.207972L14.312 0.200012ZM25.9334 3.10105C27.3324 3.10105 28.6132 3.8705 29.0827 5.05276L29.1611 5.27918L34.1851 22.3127C34.6225 23.7925 33.6631 25.3013 32.0242 25.781L31.7856 25.8424L30.1709 26.2035C29.8943 26.2644 29.6143 26.2948 29.3411 26.2948C27.9437 26.2948 26.6615 25.5241 26.1932 24.3417L26.1151 24.1153L21.0894 7.08318C20.6536 5.60204 21.6116 4.09448 23.2517 3.6149L23.4906 3.5535L25.1036 3.19241C25.3802 3.13005 25.6601 3.10105 25.9334 3.10105ZM5.98031 2.37525H4.31398C3.90517 2.37525 3.56483 2.63305 3.49425 2.97043L3.48082 3.10032V23.4025C3.48082 23.757 3.77574 24.0542 4.16428 24.1159L4.31398 24.1276H5.98031C6.38911 24.1276 6.72946 23.8698 6.80004 23.5324L6.81347 23.4025V3.10032C6.81347 2.74584 6.51855 2.44865 6.13001 2.38698L5.98031 2.37525ZM15.9783 2.37525H14.312C13.9031 2.37525 13.5628 2.63305 13.4922 2.97043L13.4788 3.10032V23.4025C13.4788 23.757 13.7737 24.0542 14.1623 24.1159L14.312 24.1276H15.9783C16.3871 24.1276 16.7274 23.8698 16.798 23.5324L16.8114 23.4025V3.10032C16.8114 2.74584 16.5165 2.44865 16.128 2.38698L15.9783 2.37525ZM25.9351 5.27628L25.8295 5.2819L25.7251 5.29949L24.1121 5.65912C23.8205 5.72438 23.6672 5.8955 23.6006 5.99411C23.5486 6.07068 23.4742 6.21407 23.4849 6.3983L23.5106 6.54372L28.5362 23.5744C28.6462 23.9485 29.0311 24.1196 29.3411 24.1196L29.4452 24.114L29.5494 24.0964L31.164 23.7353C31.561 23.6477 31.8171 23.324 31.7883 22.9822L31.7639 22.8536L26.7399 5.82009C26.6283 5.4474 26.245 5.27628 25.9351 5.27628Z" fill="#FF9900"/>
</g>
</svg>
