<svg width="34" height="32" viewBox="0 0 34 32" fill="none" xmlns="http://www.w3.org/2000/svg">
<path d="M32.6032 13.2028L17.8379 1.38095C17.3579 0.996635 16.7258 0.788648 16.0737 0.800465C15.4216 0.812283 14.8 1.04299 14.3388 1.44437L0.759029 13.2625L0.0621338 13.8689V31.2913H13.148V20.4207H20.2857V31.2913H33.3716V13.818L32.6032 13.2028ZM16.1249 2.87061C16.1458 2.87061 16.1329 2.87456 16.1239 2.88226C16.1146 2.87456 16.1039 2.87061 16.1249 2.87061ZM30.9923 29.2207H22.665V20.4207C22.665 19.8715 22.4143 19.3449 21.9681 18.9566C21.5219 18.5683 20.9167 18.3501 20.2857 18.3501H13.148C12.517 18.3501 11.9118 18.5683 11.4656 18.9566C11.0194 19.3449 10.7687 19.8715 10.7687 20.4207V29.2207H2.44138V14.7266L16.1249 2.90846C16.1258 2.90769 16.1259 2.90698 16.1266 2.9062L30.9923 14.7266V29.2207Z" fill="#FF9900"/>
</svg>
