<svg width="44" height="40" viewBox="0 0 44 40" fill="none" xmlns="http://www.w3.org/2000/svg">
<g id="&#240;&#159;&#166;&#134; icon &#34;Wrench&#34;">
<path id="Vector" d="M43.6331 8.5233C43.4406 7.81784 42.4695 7.57877 41.9041 8.09284L35.5138 13.9022L29.6804 13.0186L28.7084 7.71549L35.0987 1.90613C35.6676 1.38894 35.3935 0.507696 34.6123 0.331134C30.5406 -0.586052 26.0573 0.402227 22.875 3.29441C19.4684 6.39128 18.5309 10.8803 19.9488 14.7944L1.61068 31.4654C-0.536893 33.4178 -0.536893 36.5834 1.61068 38.5357C3.75825 40.4881 7.24043 40.4881 9.388 38.5357L27.7107 21.8787C32.0179 23.1842 36.9464 22.3225 40.3753 19.2053C43.561 16.3092 44.6463 12.2272 43.6331 8.5233ZM5.5002 36.8748C4.36153 36.8748 3.43771 36.035 3.43771 34.9998C3.43771 33.9639 4.36153 33.1248 5.5002 33.1248C6.63887 33.1248 7.56269 33.9639 7.56269 34.9998C7.56269 36.035 6.63887 36.8748 5.5002 36.8748Z" fill="#FF9900"/>
</g>
</svg>
