<svg width="34" height="33" viewBox="0 0 34 33" fill="none" xmlns="http://www.w3.org/2000/svg">
<g id="&#240;&#159;&#166;&#134; icon &#34;address book&#34;">
<path id="Vector" d="M33.6946 9.18775V6.98217H30.7297V2.42896C30.7251 1.9935 30.5222 1.57742 30.1654 1.27203C29.8087 0.966644 29.3273 0.796894 28.8269 0.800031H2.28794C1.78756 0.796894 1.30618 0.966644 0.949447 1.27203C0.592713 1.57742 0.389763 1.9935 0.385132 2.42896V30.709C0.389763 31.1444 0.592713 31.5605 0.949447 31.8659C1.30618 32.1713 1.78756 32.341 2.28794 32.3379H28.8269C29.3273 32.341 29.8087 32.1713 30.1654 31.8659C30.5222 31.5605 30.7251 31.1444 30.7297 30.709V26.0242H33.6946V23.8186H30.7297V17.606H33.6946V15.4004H30.7297V9.18775H33.6946ZM28.1954 15.4004H24.626V17.606H28.1954V23.8186H24.626V26.0242H28.1954V30.1323H2.91949V3.00561H28.1954V6.98217H24.626V9.18775H28.1954V15.4004Z" fill="#FF9900"/>
<path id="Vector_2" d="M19.9133 19.8524L17.741 18.6236L18.7853 16.4102V12.933C18.7853 11.7867 18.2621 10.6875 17.3308 9.87695C16.3995 9.06645 15.1363 8.61111 13.8193 8.61111C12.5022 8.61111 11.239 9.06645 10.3077 9.87695C9.37637 10.6875 8.85316 11.7867 8.85316 12.933V16.3895L9.8145 18.6706L7.72526 19.8524C7.20567 20.1451 6.77874 20.5465 6.48352 21.02C6.1883 21.4934 6.03423 22.0237 6.03541 22.5623V25.9737H21.6031V22.5623C21.6043 22.0237 21.4502 21.4934 21.155 21.02C20.8598 20.5465 20.4328 20.1451 19.9133 19.8524ZM19.1848 23.8692H8.45369V22.5623C8.45329 22.3744 8.50703 22.1894 8.61001 22.0243C8.71299 21.8592 8.86191 21.7191 9.04315 21.617L12.7486 19.5209L11.2714 16.0155V12.933C11.2714 12.3449 11.5399 11.7809 12.0177 11.3651C12.4955 10.9493 13.1435 10.7157 13.8193 10.7157C14.495 10.7157 15.143 10.9493 15.6208 11.3651C16.0986 11.7809 16.3671 12.3449 16.3671 12.933V15.9949L14.7423 19.4376L18.5954 21.617C18.7766 21.7191 18.9255 21.8592 19.0285 22.0243C19.1315 22.1894 19.1852 22.3744 19.1848 22.5623V23.8692Z" fill="#FF9900"/>
</g>
</svg>
