<svg width="44" height="30" viewBox="0 0 44 30" fill="none" xmlns="http://www.w3.org/2000/svg">
<path d="M13.2 15C17.4556 15 20.9 11.6451 20.9 7.5C20.9 3.35491 17.4556 0 13.2 0C8.94438 0 5.5 3.35491 5.5 7.5C5.5 11.6451 8.94438 15 13.2 15ZM18.48 17.1429H17.9094C16.4794 17.8125 14.8913 18.2143 13.2 18.2143C11.5087 18.2143 9.9275 17.8125 8.49063 17.1429H7.92C3.5475 17.1429 0 20.5982 0 24.8571V26.7857C0 28.5603 1.47812 30 3.3 30H23.1C24.9219 30 26.4 28.5603 26.4 26.7857V24.8571C26.4 20.5982 22.8525 17.1429 18.48 17.1429ZM33 15C36.6437 15 39.6 12.1205 39.6 8.57143C39.6 5.02232 36.6437 2.14286 33 2.14286C29.3563 2.14286 26.4 5.02232 26.4 8.57143C26.4 12.1205 29.3563 15 33 15ZM36.3 17.1429H36.0388C35.0831 17.4643 34.0725 17.6786 33 17.6786C31.9275 17.6786 30.9169 17.4643 29.9613 17.1429H29.7C28.2975 17.1429 27.005 17.5379 25.8706 18.1741C27.5481 19.9353 28.6 22.2723 28.6 24.8571V27.4286C28.6 27.5759 28.5656 27.7165 28.5588 27.8571H40.7C42.5219 27.8571 44 26.4174 44 24.6429C44 20.4978 40.5556 17.1429 36.3 17.1429Z" fill="#FF9900"/>
</svg>
