<svg width="22" height="27" viewBox="0 0 22 27" fill="none" xmlns="http://www.w3.org/2000/svg">
<path fill-rule="evenodd" clip-rule="evenodd" d="M11.4236 0.690155C7.59972 0.690155 4.49987 3.86717 4.49987 7.78621C4.49987 11.0218 6.61277 13.7516 9.5016 14.6053C7.22102 14.8901 5.26495 15.7168 3.7914 17.2052C1.91596 19.0996 0.966431 21.9196 0.966431 25.5996C0.966431 26.1132 1.37263 26.5294 1.87367 26.5294C2.37474 26.5294 2.78092 26.1132 2.78092 25.5996C2.78092 22.2326 3.64583 19.9632 5.06505 18.5297C6.48694 17.0935 8.60966 16.3504 11.4235 16.3504C14.2373 16.3504 16.3601 17.0935 17.7821 18.5298C19.2012 19.9632 20.0662 22.2326 20.0662 25.5996C20.0662 26.1132 20.4723 26.5294 20.9735 26.5294C21.4745 26.5296 21.8807 26.1132 21.8807 25.5997C21.8807 21.9196 20.9311 19.0996 19.0557 17.2052C17.5821 15.7169 15.626 14.8902 13.3455 14.6053C16.2342 13.7516 18.3473 11.0218 18.3473 7.78621C18.3473 3.86717 15.2474 0.690155 11.4236 0.690155ZM6.31435 7.78621C6.31435 4.89423 8.60183 2.54981 11.4236 2.54981C14.2453 2.54981 16.5328 4.89423 16.5328 7.78621C16.5328 10.6782 14.2453 13.0226 11.4236 13.0226C8.60183 13.0226 6.31435 10.6782 6.31435 7.78621Z" fill="#FF9900"/>
</svg>
